<svg xmlns="http://www.w3.org/2000/svg" xmlns:xlink="http://www.w3.org/1999/xlink"><symbol id="s-fb" viewBox="0 0 250 250">
<g>
	<path fill="#ACAFC1" d="M160.216,185.426c0,19.15-0.048,38.299,0.048,57.496c0,2.091-0.475,2.661-2.613,2.613   c-16.298-0.095-32.597-0.095-48.943,0c-2.233,0-2.756-0.618-2.756-2.804c0.048-38.061,0.048-76.17,0.095-114.232   c0-2.091-0.38-2.851-2.661-2.804c-7.223,0.143-14.398,0-21.62,0.095c-1.663,0-2.138-0.475-2.138-2.138   c0.048-12.022,0.095-24.091,0-36.113c0-1.853,0.665-2.233,2.328-2.186c7.223,0.095,14.398-0.048,21.62,0.095   c2.043,0.048,2.471-0.618,2.471-2.566c-0.095-10.596-0.095-21.24,0-31.837c0.095-9.171,1.948-17.867,7.365-25.564   c5.75-8.173,13.733-13.115,23.093-16.108c6.985-2.233,14.208-3.184,21.478-3.231c13.78-0.19,27.56-0.048,41.34-0.143   c1.948,0,2.376,0.618,2.376,2.471c-0.048,12.355-0.095,24.709,0,37.064c0,2.043-0.618,2.471-2.566,2.471   c-8.696-0.095-17.439-0.048-26.135-0.048c-7.65,0-12.64,5.037-12.64,12.592c0,7.508,0.048,15.063-0.048,22.571   c0,1.806,0.523,2.281,2.281,2.281c12.212-0.048,24.376,0,36.588-0.095c1.853,0,2.518,0.428,2.281,2.376   c-1.378,12.355-2.471,24.709-4.657,36.969c-0.285,1.521-1.235,1.14-2.091,1.14c-7.223,0-14.398,0-21.62,0   c-3.469,0-6.985,0.095-10.454-0.048c-1.948-0.095-2.518,0.475-2.471,2.471C160.216,147.269,160.216,166.324,160.216,185.426z"/>
</g>
</symbol><symbol id="s-skype" viewBox="0 0 250 250">
<path fill="#ACAFC1" d="M238.555,151.707c1.539-7.697,2.309-16.163,2.309-24.63c0-63.883-50.029-115.452-112.373-115.452  c-6.927,0-13.085,0.77-19.242,1.539C99.243,6.237,86.928,2.389,74.613,2.389c-36.175,0-65.423,30.018-65.423,66.962  c0,12.315,3.079,23.86,9.236,33.866c-1.539,7.697-2.309,15.394-2.309,23.09c0,63.883,50.799,116.222,112.373,116.222  c6.927,0,13.854-0.77,20.781-2.309c9.236,5.388,20.012,7.697,30.787,7.697c36.175,0,65.423-30.018,65.423-66.962  C245.482,170.949,243.173,160.943,238.555,151.707z M186.217,182.494c-5.388,7.697-13.085,13.854-23.09,17.703  c-10.006,3.848-21.551,6.157-35.405,6.157c-16.163,0-30.018-3.079-40.023-8.466c-7.697-3.848-13.854-10.006-18.472-16.933  c-4.618-6.927-6.927-13.854-6.927-20.781c0-4.618,1.539-7.697,4.618-10.776c3.079-3.079,6.927-4.618,11.545-4.618  c3.848,0,6.927,1.539,10.006,3.848c2.309,2.309,4.618,5.388,6.927,10.006c2.309,4.618,3.848,8.466,6.157,11.545  c2.309,3.079,5.388,5.388,9.236,7.697c3.848,2.309,9.236,3.079,16.163,3.079c9.236,0,16.933-2.309,22.321-6.157  c5.388-3.848,8.466-8.466,8.466-14.624c0-4.618-1.539-8.466-4.618-10.776c-3.079-3.079-6.927-5.388-12.315-6.927  c-5.388-1.539-12.315-3.079-20.781-5.388c-11.545-2.309-21.551-5.388-29.248-9.236s-14.624-8.466-19.242-14.624  c-4.618-6.157-6.927-13.854-6.927-23.09c0-8.466,2.309-16.933,7.697-23.09c5.388-6.927,12.315-12.315,21.551-15.394  c9.236-3.848,20.781-5.388,33.096-5.388c10.006,0,19.242,1.539,26.169,3.848c7.697,2.309,13.854,5.388,18.472,9.236  c4.618,3.848,8.466,8.466,10.776,12.315c2.309,4.618,3.848,9.236,3.848,13.085c0,3.848-1.539,7.697-4.618,11.545  c-3.079,3.079-6.927,4.618-11.545,4.618c-3.848,0-7.697-0.77-10.006-3.079c-2.309-2.309-4.618-4.618-6.927-9.236  c-3.079-5.388-6.157-10.006-10.006-13.085c-3.848-3.079-10.006-4.618-18.472-4.618c-7.697,0-14.624,1.539-19.242,4.618  s-6.927,6.927-6.927,10.776c0,2.309,0.77,4.618,2.309,6.927c1.539,2.309,3.848,3.848,6.927,5.388  c3.079,1.539,6.157,3.079,9.236,3.848c3.079,0.77,8.466,2.309,15.394,3.848c9.236,2.309,17.703,4.618,24.63,6.927  c7.697,2.309,13.854,5.388,19.242,9.236c5.388,3.848,10.006,8.466,12.315,13.854c3.848,5.388,5.388,12.315,5.388,20.012  C193.914,165.561,191.605,174.797,186.217,182.494z"/>
</symbol><symbol id="s-tw" viewBox="0 0 250 250">
<g id="Livello_x0020_1">
	<path fill="#ACAFC1" d="M248.385,49.713c-9.042,3.99-18.743,6.699-28.921,7.907c10.397-6.223,18.377-16.108,22.111-27.859   c-9.738,5.784-20.501,9.957-31.959,12.227c-9.189-9.774-22.258-15.888-36.755-15.888c-27.786,0-50.336,22.551-50.336,50.336   c0,3.954,0.439,7.798,1.318,11.458C82.001,85.809,44.917,65.748,20.096,35.29c-4.32,7.431-6.809,16.071-6.809,25.296   c0,17.462,8.896,32.874,22.404,41.88c-8.237-0.256-15.998-2.526-22.807-6.297c0,0.22,0,0.403,0,0.622   c0,24.381,17.352,44.735,40.379,49.348c-4.21,1.135-8.676,1.757-13.252,1.757c-3.258,0-6.406-0.329-9.482-0.915   c6.406,19.988,25.003,34.558,47.005,34.961c-17.243,13.508-38.915,21.562-62.527,21.562c-4.064,0-8.054-0.256-12.008-0.696   c22.258,14.277,48.726,22.624,77.17,22.624c92.582,0,143.212-76.694,143.212-143.212c0-2.196-0.037-4.356-0.146-6.516   c9.848-7.102,18.377-15.961,25.113-26.065L248.385,49.713z"/>
</g>
</symbol><symbol id="s-vk" viewBox="0 0 250 250">
<g>
	<path fill="#ACAFC1" d="M243.577,175.982c-0.293-0.631-0.566-1.155-0.819-1.574c-4.196-7.558-12.215-16.834-24.052-27.832   l-0.25-0.252l-0.125-0.124l-0.127-0.127h-0.127c-5.372-5.121-8.774-8.564-10.199-10.327c-2.607-3.358-3.191-6.757-1.766-10.202   c1.007-2.602,4.787-8.098,11.333-16.494c3.443-4.45,6.17-8.016,8.184-10.703c14.525-19.31,20.822-31.649,18.89-37.022l-0.75-1.256   c-0.504-0.756-1.805-1.448-3.902-2.078c-2.101-0.629-4.787-0.733-8.062-0.314l-36.266,0.251c-0.587-0.208-1.426-0.189-2.519,0.064   c-1.092,0.252-1.638,0.379-1.638,0.379l-0.631,0.315l-0.501,0.379c-0.42,0.251-0.882,0.691-1.386,1.321   c-0.501,0.628-0.921,1.364-1.256,2.204c-3.948,10.158-8.437,19.602-13.476,28.333c-3.106,5.206-5.959,9.717-8.564,13.537   c-2.602,3.819-4.785,6.632-6.546,8.436c-1.764,1.805-3.356,3.251-4.786,4.344c-1.428,1.093-2.518,1.555-3.272,1.386   c-0.756-0.169-1.469-0.337-2.143-0.504c-1.175-0.756-2.119-1.784-2.832-3.085c-0.715-1.301-1.197-2.939-1.449-4.912   c-0.251-1.974-0.399-3.672-0.441-5.1c-0.039-1.426-0.021-3.443,0.064-6.045c0.087-2.604,0.127-4.365,0.127-5.289   c0-3.191,0.062-6.653,0.187-10.389c0.127-3.736,0.23-6.696,0.316-8.876c0.086-2.183,0.125-4.492,0.125-6.927   c0-2.435-0.148-4.344-0.441-5.73c-0.289-1.384-0.733-2.728-1.319-4.03c-0.589-1.301-1.451-2.308-2.582-3.022   c-1.133-0.714-2.542-1.28-4.218-1.701c-4.45-1.007-10.116-1.552-17.002-1.636c-15.614-0.168-25.647,0.841-30.096,3.023   c-1.763,0.922-3.358,2.182-4.785,3.776c-1.512,1.848-1.722,2.856-0.631,3.022c5.038,0.755,8.604,2.56,10.703,5.414l0.756,1.512   c0.588,1.091,1.176,3.023,1.764,5.793c0.587,2.77,0.966,5.834,1.133,9.19c0.419,6.129,0.419,11.376,0,15.741   c-0.42,4.366-0.817,7.766-1.196,10.2c-0.379,2.435-0.945,4.408-1.7,5.918c-0.756,1.511-1.26,2.435-1.512,2.77   c-0.252,0.335-0.462,0.546-0.629,0.629c-1.091,0.418-2.226,0.631-3.401,0.631c-1.176,0-2.603-0.588-4.281-1.764   c-1.678-1.176-3.42-2.791-5.225-4.848c-1.805-2.058-3.841-4.933-6.109-8.626c-2.266-3.693-4.617-8.059-7.051-13.096l-2.014-3.653   c-1.259-2.35-2.979-5.772-5.162-10.262c-2.184-4.492-4.115-8.838-5.793-13.035c-0.671-1.763-1.679-3.105-3.022-4.029l-0.63-0.379   c-0.419-0.335-1.092-0.691-2.014-1.07c-0.924-0.379-1.888-0.651-2.896-0.818l-34.504,0.251c-3.526,0-5.918,0.799-7.178,2.394   l-0.504,0.755C3.127,61.24,3,61.911,3,62.835c0,0.924,0.252,2.057,0.756,3.399c5.037,11.838,10.514,23.255,16.433,34.252   c5.918,10.997,11.061,19.856,15.425,26.568c4.365,6.717,8.815,13.056,13.348,19.015c4.534,5.961,7.535,9.781,9.003,11.459   c1.47,1.681,2.625,2.938,3.464,3.778l3.149,3.022c2.015,2.015,4.973,4.429,8.877,7.24c3.905,2.814,8.228,5.583,12.971,8.314   c4.744,2.726,10.263,4.951,16.56,6.671c6.296,1.722,12.424,2.413,18.385,2.08h14.482c2.937-0.254,5.162-1.177,6.675-2.771   l0.501-0.631c0.337-0.501,0.652-1.28,0.943-2.327c0.295-1.049,0.441-2.205,0.441-3.463c-0.086-3.609,0.189-6.862,0.817-9.758   c0.628-2.895,1.343-5.078,2.143-6.548c0.8-1.469,1.702-2.708,2.706-3.713c1.007-1.007,1.724-1.617,2.144-1.827   c0.418-0.211,0.752-0.355,1.004-0.441c2.015-0.671,4.386-0.021,7.117,1.953c2.729,1.973,5.288,4.409,7.682,7.304   c2.393,2.898,5.268,6.149,8.625,9.758c3.36,3.611,6.297,6.294,8.815,8.06l2.518,1.511c1.681,1.008,3.864,1.932,6.551,2.771   c2.682,0.839,5.032,1.049,7.05,0.629l32.236-0.503c3.188,0,5.669-0.528,7.429-1.575c1.763-1.049,2.811-2.205,3.149-3.463   c0.337-1.259,0.355-2.687,0.064-4.284C244.164,177.725,243.869,176.612,243.577,175.982z"/>
</g>
</symbol></svg>