<svg xmlns="http://www.w3.org/2000/svg" xmlns:xlink="http://www.w3.org/1999/xlink" version="1.1" id="Слой_1" x="0px" y="0px" width="20px" height="20px" viewBox="0 0 250 250" enable-background="new 0 0 250 250" xml:space="preserve">
<path fill="#ACAFC1" d="M238.555,151.707c1.539-7.697,2.309-16.163,2.309-24.63c0-63.883-50.029-115.452-112.373-115.452  c-6.927,0-13.085,0.77-19.242,1.539C99.243,6.237,86.928,2.389,74.613,2.389c-36.175,0-65.423,30.018-65.423,66.962  c0,12.315,3.079,23.86,9.236,33.866c-1.539,7.697-2.309,15.394-2.309,23.09c0,63.883,50.799,116.222,112.373,116.222  c6.927,0,13.854-0.77,20.781-2.309c9.236,5.388,20.012,7.697,30.787,7.697c36.175,0,65.423-30.018,65.423-66.962  C245.482,170.949,243.173,160.943,238.555,151.707z M186.217,182.494c-5.388,7.697-13.085,13.854-23.09,17.703  c-10.006,3.848-21.551,6.157-35.405,6.157c-16.163,0-30.018-3.079-40.023-8.466c-7.697-3.848-13.854-10.006-18.472-16.933  c-4.618-6.927-6.927-13.854-6.927-20.781c0-4.618,1.539-7.697,4.618-10.776c3.079-3.079,6.927-4.618,11.545-4.618  c3.848,0,6.927,1.539,10.006,3.848c2.309,2.309,4.618,5.388,6.927,10.006c2.309,4.618,3.848,8.466,6.157,11.545  c2.309,3.079,5.388,5.388,9.236,7.697c3.848,2.309,9.236,3.079,16.163,3.079c9.236,0,16.933-2.309,22.321-6.157  c5.388-3.848,8.466-8.466,8.466-14.624c0-4.618-1.539-8.466-4.618-10.776c-3.079-3.079-6.927-5.388-12.315-6.927  c-5.388-1.539-12.315-3.079-20.781-5.388c-11.545-2.309-21.551-5.388-29.248-9.236s-14.624-8.466-19.242-14.624  c-4.618-6.157-6.927-13.854-6.927-23.09c0-8.466,2.309-16.933,7.697-23.09c5.388-6.927,12.315-12.315,21.551-15.394  c9.236-3.848,20.781-5.388,33.096-5.388c10.006,0,19.242,1.539,26.169,3.848c7.697,2.309,13.854,5.388,18.472,9.236  c4.618,3.848,8.466,8.466,10.776,12.315c2.309,4.618,3.848,9.236,3.848,13.085c0,3.848-1.539,7.697-4.618,11.545  c-3.079,3.079-6.927,4.618-11.545,4.618c-3.848,0-7.697-0.77-10.006-3.079c-2.309-2.309-4.618-4.618-6.927-9.236  c-3.079-5.388-6.157-10.006-10.006-13.085c-3.848-3.079-10.006-4.618-18.472-4.618c-7.697,0-14.624,1.539-19.242,4.618  s-6.927,6.927-6.927,10.776c0,2.309,0.77,4.618,2.309,6.927c1.539,2.309,3.848,3.848,6.927,5.388  c3.079,1.539,6.157,3.079,9.236,3.848c3.079,0.77,8.466,2.309,15.394,3.848c9.236,2.309,17.703,4.618,24.63,6.927  c7.697,2.309,13.854,5.388,19.242,9.236c5.388,3.848,10.006,8.466,12.315,13.854c3.848,5.388,5.388,12.315,5.388,20.012  C193.914,165.561,191.605,174.797,186.217,182.494z"/>
</svg>
