<svg xmlns="http://www.w3.org/2000/svg" xmlns:xlink="http://www.w3.org/1999/xlink" version="1.1" id="Слой_1" x="0px" y="0px" width="20px" height="20px" viewBox="0 0 250 250" enable-background="new 0 0 250 250" xml:space="preserve">
<g id="Livello_x0020_1">
	<path fill="#ACAFC1" d="M248.385,49.713c-9.042,3.99-18.743,6.699-28.921,7.907c10.397-6.223,18.377-16.108,22.111-27.859   c-9.738,5.784-20.501,9.957-31.959,12.227c-9.189-9.774-22.258-15.888-36.755-15.888c-27.786,0-50.336,22.551-50.336,50.336   c0,3.954,0.439,7.798,1.318,11.458C82.001,85.809,44.917,65.748,20.096,35.29c-4.32,7.431-6.809,16.071-6.809,25.296   c0,17.462,8.896,32.874,22.404,41.88c-8.237-0.256-15.998-2.526-22.807-6.297c0,0.22,0,0.403,0,0.622   c0,24.381,17.352,44.735,40.379,49.348c-4.21,1.135-8.676,1.757-13.252,1.757c-3.258,0-6.406-0.329-9.482-0.915   c6.406,19.988,25.003,34.558,47.005,34.961c-17.243,13.508-38.915,21.562-62.527,21.562c-4.064,0-8.054-0.256-12.008-0.696   c22.258,14.277,48.726,22.624,77.17,22.624c92.582,0,143.212-76.694,143.212-143.212c0-2.196-0.037-4.356-0.146-6.516   c9.848-7.102,18.377-15.961,25.113-26.065L248.385,49.713z"/>
</g>
</svg>
